<svg id="Ebene_1" data-name="Ebene 1" xmlns="http://www.w3.org/2000/svg" viewBox="0 0 198.93 62.35"><defs><style>.cls-1{fill:#305bff;}.cls-2{fill:#fff;}</style></defs><title>Zeichenfläche 1</title><polygon class="cls-1" points="26.64 0 0 15.59 0 46.77 26.64 62.35 53.28 46.77 53.28 15.59 26.64 0"/><polygon class="cls-2" points="26.64 31.07 26.64 12.44 10.63 21.75 10.63 40.38 26.64 31.07"/><polygon class="cls-2" points="10.63 40.38 26.64 31.07 42.65 40.38 26.64 49.8 10.63 40.38"/><path class="cls-1" d="M185.88,32.28,189,25.37l3.11,6.91Zm3.5-12h-.73L179,41.58h2.66l3.14-6.86h8.45l3.17,6.86h2.55Zm-23,3.16h3.36a6.6,6.6,0,0,1,3.59.77,2.78,2.78,0,0,1,1.14,2.47,2.72,2.72,0,0,1-1.17,2.46,6.58,6.58,0,0,1-3.64.74h-3.28Zm3.84,8.8a7.36,7.36,0,0,0,5-1.53A5.14,5.14,0,0,0,177,26.63a5.61,5.61,0,0,0-.53-2.45A5,5,0,0,0,175,22.37a5.63,5.63,0,0,0-2.19-1,23.43,23.43,0,0,0-4.62-.3H164v20.5h2.41V32.23h.84l7.23,9.35h3Zm-22,.05,3.14-6.91,3.11,6.91Zm3.5-12h-.73l-9.68,21.31h2.66L147,34.72h8.46l3.16,6.86h2.55Zm-11,.81H129.21v2.35h4.5V41.58h2.44V23.43h4.48Zm-13.94,0h-2.38V36.15L111.23,21.08h-.73v20.5H113V26.71l13,14.87h.73ZM94.8,32.28l3.13-6.91L101,32.28Zm3.5-12h-.73L87.88,41.58h2.66l3.14-6.86h8.45l3.17,6.86h2.54Zm-14,16.13a9.13,9.13,0,0,1-13.28,1,7.91,7.91,0,0,1-2.48-6,8.11,8.11,0,0,1,2.53-6,8.37,8.37,0,0,1,6-2.46,9,9,0,0,1,7.19,3.53L86.2,25a10.32,10.32,0,0,0-3.91-3.32A12,12,0,0,0,77,20.58,11.27,11.27,0,0,0,71.5,22a10.22,10.22,0,0,0-4,3.86,10.5,10.5,0,0,0-1.44,5.38A10.47,10.47,0,0,0,69.18,39a10.82,10.82,0,0,0,8,3.08,10.88,10.88,0,0,0,9.07-4.25Z"/></svg>